<?xml version="1.0" encoding="iso-8859-1"?>
<!-- Generator: Adobe Illustrator 16.0.0, SVG Export Plug-In . SVG Version: 6.00 Build 0)  -->
<!DOCTYPE svg PUBLIC "-//W3C//DTD SVG 1.1//EN" "http://www.w3.org/Graphics/SVG/1.1/DTD/svg11.dtd">
<svg xmlns="http://www.w3.org/2000/svg" xmlns:xlink="http://www.w3.org/1999/xlink" version="1.1" id="Capa_1" x="0px" y="0px" width="512px" height="512px" viewBox="0 0 59.117 59.116" style="enable-background:new 0 0 59.117 59.116;" xml:space="preserve">
<g>
	<g>
		<path d="M45.799,34.729c0.014,1.503-1.193,3.141-3.132,3.829c-1.937,0.698-3.88,0.188-4.815-0.98    c-0.326,1.46-1.841,2.771-3.862,2.995c-2.024,0.239-3.79-0.698-4.429-2.044c-0.643,1.346-2.408,2.283-4.431,2.044    c-2.021-0.229-3.543-1.535-3.861-2.995c-0.931,1.168-2.873,1.679-4.814,0.98c-1.939-0.688-3.145-2.326-3.135-3.829    c-1.187,0.919-3.226,0.948-4.991-0.21c-0.211-0.135-0.397-0.283-0.58-0.436v17.765c0,4.015,9.766,7.268,21.812,7.268    c12.043,0,21.807-3.26,21.807-7.268V34.084c-0.181,0.15-0.37,0.301-0.575,0.436C49.025,35.683,46.986,35.644,45.799,34.729z" fill="#5e6977"/>
		<path d="M36.862,22.777v5.31c0,2.741-3.77,3.718-7.304,3.718c-3.532,0-7.304-0.977-7.304-3.718v-5.31    c-8.444,1.006-14.503,3.681-14.503,6.846c0,4.016,9.763,7.271,21.807,7.271c12.042,0,21.807-3.26,21.807-7.271    C51.365,26.458,45.311,23.781,36.862,22.777z" fill="#5e6977"/>
		<path d="M32.574,9.619c-0.633,1.067-1.674,1.556-2.789,1.972c-0.332,0.123-0.659,0.181-0.989,0.181    c-1.023,0-2.053-0.658-2.546-2.071c-1.25,0.33-2.072,0.829-2.072,1.406v16.984c0,0.99,2.409,1.794,5.38,1.794    c2.971,0,5.381-0.804,5.381-1.794V11.107C34.939,10.486,34,9.942,32.574,9.619z" fill="#5e6977"/>
		<path d="M29.335,10.386c1.591-0.589,2.559-1.117,2.559-3.431c0-1.734-1.479-6.018-2.282-6.955    c-0.801,1.131-2.385,5.931-2.385,7.742C27.227,9.715,28.129,10.834,29.335,10.386z" fill="#5e6977"/>
	</g>
</g>
<g>
</g>
<g>
</g>
<g>
</g>
<g>
</g>
<g>
</g>
<g>
</g>
<g>
</g>
<g>
</g>
<g>
</g>
<g>
</g>
<g>
</g>
<g>
</g>
<g>
</g>
<g>
</g>
<g>
</g>
</svg>
