<?xml version="1.0" encoding="utf-8"?>
<!-- Generator: Adobe Illustrator 21.0.2, SVG Export Plug-In . SVG Version: 6.00 Build 0)  -->
<svg version="1.1" id="Layer_1" xmlns="http://www.w3.org/2000/svg" xmlns:xlink="http://www.w3.org/1999/xlink" x="0px" y="0px"
	 viewBox="0 0 44 44" style="enable-background:new 0 0 44 44;" xml:space="preserve">
<style type="text/css">
	.st0{fill:#A353C9;}
</style>
<g>
	<path class="st0" d="M26.2,28.1c-0.7-0.3-1.4-0.7-2.1-1c-1.9-1-4-2-5.1-2c-1.9,0-4.2,1.1-5.8,2C13,27.2,13,27.4,13,27.5v1.1
		c0,0.3,0.2,0.5,0.5,0.5H26C26.5,29,26.7,28.3,26.2,28.1z"/>
	<path class="st0" d="M30.5,15h-17c-0.3,0-0.5,0.2-0.5,0.5v6.3c0,0.4,0.4,0.6,0.7,0.5c1.6-0.7,3.5-1.3,5.3-1.3c2.1,0,4.5,1.2,7,2.5
		c1.5,0.8,3,1.5,4.4,2c0.3,0.1,0.7-0.1,0.7-0.5v-9.5C31,15.2,30.8,15,30.5,15z M27,21c-1.1,0-2-0.9-2-2s0.9-2,2-2s2,0.9,2,2
		S28.1,21,27,21z"/>
	<path class="st0" d="M22,0C9.8,0,0,9.8,0,22s9.8,22,22,22s22-9.8,22-22S34.2,0,22,0z M35,32c0,0.6-0.4,1-1,1H10c-0.6,0-1-0.4-1-1
		V12c0-0.6,0.4-1,1-1h24c0.6,0,1,0.4,1,1V32z"/>
</g>
</svg>
